<?xml version="1.0" encoding="UTF-8" standalone="no"?>
<!DOCTYPE svg PUBLIC "-//W3C//DTD SVG 1.1//EN" "http://www.w3.org/Graphics/SVG/1.1/DTD/svg11.dtd">
<svg width="100%" height="100%" viewBox="0 0 38 38" version="1.1" xmlns="http://www.w3.org/2000/svg" xmlns:xlink="http://www.w3.org/1999/xlink" xml:space="preserve" xmlns:serif="http://www.serif.com/" style="fill-rule:evenodd;clip-rule:evenodd;stroke-linejoin:round;stroke-miterlimit:2;">
    <g transform="matrix(0.0742188,0,0,0.0742188,0,0)">
        <g>
            <path d="M40.311,0.495L427.544,57.033C449.747,60.275 469.613,81.247 472.037,103.878L511.76,474.734C514.15,497.064 498.447,513.687 476.566,511.863L95.094,480.101C70.654,478.066 48.509,457.12 45.77,433.305L0.283,37.666C-2.494,13.512 15.492,-3.128 40.311,0.495Z" style="fill:rgb(0,135,54);"/>
        </g>
        <path d="M25.228,54.078L67.072,418.036C69.309,437.482 87.69,454.991 107.894,456.673L458.818,485.891C467.475,486.613 474.595,483.695 479.333,478.691C484.084,473.674 486.766,466.209 485.807,457.251L449.266,116.092C447.272,97.483 430.694,80.058 412.585,77.414L56.36,25.403C46.215,23.922 37.956,26.624 32.552,31.636C27.173,36.626 24.112,44.373 25.228,54.078ZM20.26,54.649L62.105,418.607C64.625,440.514 84.996,459.784 107.479,461.655L458.403,490.874C478.533,492.552 492.978,477.26 490.779,456.718L454.238,115.56C452.007,94.741 433.732,75.448 413.307,72.466L57.083,20.456C34.252,17.122 17.706,32.43 20.26,54.649Z" style="fill:rgb(241,242,242);fill-opacity:0.15;"/>
        <path d="M143,158L256,354.18L369,158L218.43,158L255.998,223.524L274.832,191.089L312.302,191.089L256,288.525L180.764,158L143,158Z" style="fill:rgb(241,242,242);"/>
    </g>
</svg>
